<svg id="Layer_1" viewBox="0 0 48 48" xmlns="http://www.w3.org/2000/svg" data-name="Layer 1"><path d="m14.45 31.2c-2.13.5-3.82 2.1-4.42 4.2l-1.57 5.5c-.73 2.56 1.19 5.1 3.84 5.1h23.4c2.65 0 4.57-2.54 3.84-5.1l-1.57-5.5c-.6-2.1-2.29-3.7-4.42-4.2l-9.55-2.2-9.55 2.2z" fill="#47caf0"/><path d="m39.088 42h-22.023c-2.494 0-4.301-2.391-3.614-4.8l1.478-5.177c.104-.363.253-.703.422-1.031l-.9.207c-2.13.5-3.82 2.1-4.42 4.2l-1.57 5.5c-.73 2.56 1.19 5.1 3.84 5.1h23.4c2.286 0 4.024-1.891 3.991-4.054-.196.031-.396.054-.603.054z" fill="#20aee1"/><path d="m18.007 8.917c-2.646.958-5.271 3.833-3.354 7.667l.958 1.917h17.163s.718-1.796.718-1.796c1.812-4.53-1.39-9.704-6.27-9.704-.067 0-8.824 0-8.824 0l-.392 1.917z" fill="#0d3b8d"/><path d="m18.007 11.917.392-1.917h8.824c3.384 0 5.957 2.49 6.615 5.526.892-4.203-2.154-8.526-6.615-8.526h-8.824l-.392 1.917c-2.398.869-4.766 3.314-3.765 6.618.589-1.761 2.17-3.04 3.765-3.618z" fill="#1761b2"/><path d="m20 25v7c0 2.209 1.791 4 4 4 2.209 0 4-1.791 4-4v-7z" fill="#ffcdb4"/><path d="m20 31.736c1.133.794 2.51 1.264 4 1.264s2.867-.47 4-1.264v-6.736h-8z" fill="#f6a28d"/><path d="m32 19h-1v-2c0-1.657-1.343-3-3-3h-8c-1.657 0-3 1.343-3 3v2h-1c-1.105 0-2 .895-2 2 0 1.657 1.343 3 3 3h.08c.486 3.391 3.395 6 6.92 6s6.434-2.609 6.92-6h.08c1.657 0 3-1.343 3-3 0-1.105-.895-2-2-2z" fill="#ffcdb4"/><path d="m26.5 27.5c-3.866 0-7-3.134-7-7v-6.45c-1.418.239-2.5 1.464-2.5 2.95v2h-1c-1.105 0-2 .895-2 2 0 1.657 1.343 3 3 3h.08c.486 3.391 3.395 6 6.92 6 2.819 0 5.24-1.67 6.347-4.073-.992.972-2.349 1.573-3.847 1.573z" fill="#f6a28d"/><g fill="#08105e"><path d="m41 29c-.553 0-1 .448-1 1v4c0 .551-.448 1-1 1h-.114c-.728-2.376-2.67-4.201-5.112-4.774l-4.685-1.081c1.288-1.069 2.248-2.531 2.668-4.217 1.845-.355 3.243-1.981 3.243-3.928 0-.977-.477-1.838-1.202-2.386l.621-1.542c1.009-2.526.695-5.386-.839-7.651-1.473-2.174-3.791-3.42-6.36-3.42h-8.819c-.422 0-.799.265-.941.662-.024.067-.23.669-.363 1.553-1.705.775-3.065 2.116-3.692 3.688-.64 1.602-.516 3.374.358 5.123l.704 1.409c-.875.525-1.467 1.473-1.467 2.565 0 1.927 1.37 3.541 3.24 3.917.418 1.69 1.379 3.156 2.67 4.228l-4.689 1.082c-2.439.573-4.38 2.397-5.108 4.773h-.114c-.552 0-1-.449-1-1v-4c0-.552-.447-1-1-1s-1 .448-1 1v4c0 1.499 1.108 2.733 2.546 2.954l-1.048 3.672c-.435 1.525-.136 3.124.818 4.389.952 1.262 2.404 1.985 3.983 1.985h23.4c1.579 0 3.031-.724 3.983-1.985.954-1.265 1.253-2.864.818-4.389l-1.048-3.671c1.438-.221 2.546-1.455 2.546-2.954v-4c0-.552-.447-1-1-1zm-20 1.401c.933.383 1.945.599 3 .599s2.067-.216 3-.599v1.599c0 1.654-1.346 3-3 3s-3-1.346-3-3zm6.22-22.401c1.896 0 3.609.926 4.704 2.542 1.162 1.715 1.4 3.878.639 5.785l-.562 1.398v-.724c0-2.206-1.794-4-4-4h-7.933c-1.341-1.711-1.129-3.914-.899-5h8.052zm-11.958 4.645c.358-.898 1.038-1.604 1.769-2.106.096.974.372 2.021.972 3.016-1.192.693-2.004 1.97-2.004 3.446v.028l-.448-.897c-.621-1.242-.719-2.415-.29-3.487zm2.808 11.213c-.071-.492-.572-.858-1.069-.858-1.103 0-2-.897-2-2 0-.551.448-1 1-1h1c.553 0 1-.448 1-1v-2c0-1.103.897-2 2-2h8c1.103 0 2 .897 2 2v2c0 .552.447 1 1 1h1c.552 0 1 .449 1 1 0 1.103-.897 2-2.079 2-.497 0-.919.366-.99.858-.421 2.932-2.971 5.142-5.931 5.142s-5.51-2.21-5.931-5.142zm20.019 19.952c-.571.756-1.441 1.19-2.388 1.19h-23.401c-.946 0-1.816-.434-2.388-1.19-.572-.759-.751-1.72-.49-2.635l1.192-4.174h2.386c.553 0 1-.448 1-1s-.447-1-1-1h-1.758c.634-1.408 1.897-2.465 3.433-2.825l4.325-.998v.823c0 2.757 2.243 5 5 5s5-2.243 5-5v-.823l4.321.997c1.539.361 2.803 1.418 3.437 2.826h-1.758c-.553 0-1 .448-1 1s.447 1 1 1h2.386l1.192 4.174c.261.916.082 1.877-.49 2.636z"/><path d="m7 9c.553 0 1-.448 1-1v-4c0-.551.448-1 1-1h4c.553 0 1-.448 1-1s-.447-1-1-1h-4c-1.654 0-3 1.346-3 3v4c0 .552.447 1 1 1z"/><path d="m39 1h-4c-.553 0-1 .448-1 1s.447 1 1 1h4c.552 0 1 .449 1 1v4c0 .552.447 1 1 1s1-.448 1-1v-4c0-1.654-1.346-3-3-3z"/></g></svg>